<svg xmlns="http://www.w3.org/2000/svg" xmlns:xlink="http://www.w3.org/1999/xlink" width="739.94" height="563.058" viewBox="0 0 739.94 563.058">
  <defs>
    <clipPath id="clip-path">
      <rect id="Rectangle_40" data-name="Rectangle 40" width="739.94" height="563.058" fill="none"/>
    </clipPath>
  </defs>
  <g id="Group_23" data-name="Group 23" transform="translate(0)">
    <g id="Group_23-2" data-name="Group 23" transform="translate(0)" clip-path="url(#clip-path)">
      <path id="Path_50" data-name="Path 50" d="M146.541,112.776C166.552,92.7,187.88,73.81,211.407,58,270.154,18.528,341.719-.5,412.484.813S553.075,23.292,614.644,58.2c38.211,21.665,74.113,49.308,98.016,86.161s34.511,83.977,20.844,125.722c-19.178,58.579-79.988,93.493-139.617,109.1s-122.633,17.588-180.7,38.26C347,441.009,291.795,487.119,233.131,525.78c-28.669,18.894-60.252,36.677-94.586,36.883-33.447.2-65.541-16.992-87.97-41.8S14.611,464.25,6.865,431.712c-18.8-78.971,7.731-142.954,52.541-207.051C86.931,185.288,113.237,147.563,146.541,112.776Z" transform="translate(-0.179 -0.178)" fill="none" stroke="#fff" stroke-width="1.5"/>
      <path id="Path_51" data-name="Path 51" d="M615,84.584a382.514,382.514,0,0,0-87.069-36.86,357.538,357.538,0,0,0-93.509-13.648c-62.69-.84-126.068,16.163-178.183,51.13a370.106,370.106,0,0,0-57.59,48.482c-29.895,30.471-53.026,64.143-77.49,99C81.311,289.467,57.2,346.8,73.385,417.151c6.649,29.08,18.513,57.49,38.413,79.678,19.835,22.076,48.222,37.34,77.845,37.284,30.395-.062,58.434-15.6,83.934-32.181,52.17-33.918,101.354-74.6,159.851-95.5,51.874-18.59,108.032-20.946,161.1-35.367s107.061-45.884,124.379-98.2c12.183-36.97,3.074-78.71-17.792-111.453C680.254,128.65,648.751,103.954,615,84.584Z" transform="translate(-36.515 -8.087)" fill="none" stroke="#fff" stroke-width="1.688"/>
      <path id="Path_52" data-name="Path 52" d="M615.366,110.966A318.284,318.284,0,0,0,538.721,78.5a315.01,315.01,0,0,0-82.35-11.163c-54.615-.186-109.806,14.612-155.288,45.074A325.833,325.833,0,0,0,250.768,154.6c-26.135,26.493-46.44,55.774-67.843,86.123-34.888,49.453-56.582,100.133-43.01,161.867,5.552,25.622,15.746,50.644,33.117,70.211,17.239,19.338,41.919,32.676,67.72,32.765,26.455.081,50.951-13.22,73.28-27.478,45.678-29.174,88.844-64.439,139.648-82.66,45.68-16.508,94.991-19.242,141.507-32.473,46.532-13.246,93.682-41.245,109.139-87.3,10.7-32.2,3.091-68.551-14.74-97.183C671.761,149.792,644.6,128.14,615.366,110.966Z" transform="translate(-72.862 -15.994)" fill="none" stroke="#fff" stroke-width="1.875"/>
      <path id="Path_53" data-name="Path 53" d="M615.656,137.337a254.73,254.73,0,0,0-66.222-28.075,270.369,270.369,0,0,0-71.191-8.677c-46.539.366-93.545,13.06-132.394,39.016a281.649,281.649,0,0,0-43.039,35.9c-22.376,22.516-39.856,47.405-58.2,73.241-29.927,42.131-49.068,86.133-38.245,139.275,4.512,22.153,12.979,43.8,27.82,60.743,14.645,16.6,35.618,28.012,57.6,28.245,22.516.224,43.468-10.837,62.628-22.777,39.185-24.429,76.365-54.183,119.446-69.822,39.515-14.344,81.95-17.538,121.909-29.58,39.984-12.062,80.4-36.571,93.9-76.393,9.285-27.4,3.108-58.392-11.688-82.913C663.19,170.923,640.4,152.261,615.656,137.337Z" transform="translate(-109.133 -23.89)" fill="none" stroke="#fff" stroke-width="2.063"/>
      <path id="Path_54" data-name="Path 54" d="M616.034,163.69a194.811,194.811,0,0,0-55.8-23.684,225.7,225.7,0,0,0-60.032-6.19c-38.458.907-77.283,11.509-109.5,32.958a237.568,237.568,0,0,0-35.764,29.6c-18.617,18.538-33.272,39.037-48.551,60.359-24.966,34.809-41.652,72.155-33.48,116.683,3.431,18.694,10.174,36.988,22.524,51.276,12.013,13.9,29.316,23.348,47.47,23.726,18.577.367,35.984-8.453,51.976-18.076,32.691-19.686,63.863-43.994,99.243-56.985,33.33-12.238,68.909-15.834,102.312-26.685,33.436-10.88,67.053-31.921,78.661-65.49,7.819-22.615,3.125-48.232-8.636-68.644C654.709,192.034,636.291,176.356,616.034,163.69Z" transform="translate(-145.492 -31.768)" fill="none" stroke="#fff" stroke-width="2.25"/>
      <path id="Path_55" data-name="Path 55" d="M616.457,190a139.519,139.519,0,0,0-45.375-19.291c-16.086-3.668-32.488-4.476-48.872-3.706-30.374,1.43-61.022,9.957-86.605,26.9a193.831,193.831,0,0,0-28.489,23.311c-14.857,14.56-26.687,30.668-38.906,47.477-20,27.487-34.245,58.182-28.714,94.091,2.347,15.236,7.4,30.148,17.227,41.808,9.411,11.165,23.014,18.684,37.345,19.206,14.638.51,28.5-6.07,41.323-13.374,26.2-14.942,51.359-33.811,79.041-44.147,27.143-10.135,55.867-14.13,82.714-23.793,26.888-9.7,53.7-27.271,63.423-54.586,6.348-17.835,3.141-38.073-5.583-54.374C646.271,213.107,632.231,200.4,616.457,190Z" transform="translate(-181.895 -39.607)" fill="none" stroke="#fff" stroke-width="2.438"/>
      <path id="Path_56" data-name="Path 56" d="M616.971,216.23a90.146,90.146,0,0,0-34.951-14.9c-12.5-2.433-25.13-2.3-37.712-1.219-22.284,1.914-44.761,8.405-63.711,20.844a150.677,150.677,0,0,0-21.213,17.017c-11.1,10.583-20.1,22.3-29.259,34.6-15.044,20.165-26.856,44.217-23.95,71.5,1.256,11.782,4.628,23.305,11.93,32.34,6.814,8.43,16.712,14.022,27.221,14.687,10.7.653,21.017-3.686,30.669-8.672,19.707-10.2,38.851-23.641,58.839-31.31,20.955-8.04,42.827-12.426,63.117-20.9,20.339-8.514,40.332-22.624,48.183-43.683,4.867-13.056,3.126-27.9-2.531-40.1C637.894,234.107,628.272,224.334,616.971,216.23Z" transform="translate(-218.39 -47.358)" fill="none" stroke="#fff" stroke-width="2.625"/>
      <path id="Path_57" data-name="Path 57" d="M617.609,242.276a48.561,48.561,0,0,0-24.528-10.508c-8.9-1.2-17.768-.164-26.554,1.266-14.19,2.312-28.5,6.855-40.817,14.787a109.515,109.515,0,0,0-13.938,10.725A167.072,167.072,0,0,0,492.16,280.26c-10.083,12.843-19.511,30.263-19.184,48.908.146,8.333,1.864,16.454,6.633,22.872a25.217,25.217,0,0,0,17.1,10.167c6.759.8,13.534-1.3,20.017-3.97,13.214-5.454,26.333-13.5,38.636-18.473,14.76-5.967,29.785-10.722,43.518-18,13.791-7.332,26.937-17.986,32.945-32.78,3.364-8.286,3.144-17.744.522-25.835C629.673,254.908,624.462,248.041,617.609,242.276Z" transform="translate(-255.01 -54.929)" fill="none" stroke="#fff" stroke-width="2.813"/>
      <path id="Path_58" data-name="Path 58" d="M574.942,328.132c17.1-8.065,33.073-20.125,41.626-36.988,3.68-7.256,5.672-16.637.737-23.106-3.222-4.225-8.79-6.153-14.1-6.116s-10.456,1.79-15.394,3.753c-12.793,5.085-25.19,11.9-34.552,21.993-7.613,8.207-19.783,28.016-13.082,39.721C546.829,339.014,565.664,332.507,574.942,328.132Z" transform="translate(-290.687 -62.216)" fill="none" stroke="#fff" stroke-width="3"/>
    </g>
  </g>
</svg>
