<?xml version="1.0" ?>
<!DOCTYPE svg  PUBLIC '-//W3C//DTD SVG 1.1//EN'  'http://www.w3.org/Graphics/SVG/1.1/DTD/svg11.dtd'>
<svg xmlns="http://www.w3.org/2000/svg" viewBox="7.87495 11.2531 20.25 13.5">
  <path d="M15.209,11.51a.919.919,0,0,1,.007,1.294l-4.275,4.282h16.27a.914.914,0,1,1,0,1.828H10.948L15.223,23.2a.925.925,0,0,1-.007,1.294.91.91,0,0,1-1.287-.007l-5.794-5.84h0a1.026,1.026,0,0,1-.19-.288.872.872,0,0,1-.07-.352.916.916,0,0,1,.26-.64l5.794-5.836a.9.9,0,0,1,1.28-.021Z" fill="#000000"/>
</svg>