<svg xmlns="http://www.w3.org/2000/svg" xmlns:xlink="http://www.w3.org/1999/xlink" width="1493.235" height="433.34" viewBox="0 0 1493.235 433.34">
  <defs>
    <clipPath id="clip-path">
      <rect id="Rectangle_47" data-name="Rectangle 47" width="1493.235" height="433.341" fill="none"/>
    </clipPath>
  </defs>
  <g id="Group_24" data-name="Group 24" transform="translate(-13.643 -0.291)">
    <g id="Group_28" data-name="Group 28" transform="translate(13.643 0.291)" clip-path="url(#clip-path)">
      <path id="Path_82" data-name="Path 82" d="M1427.93,191.418A36.217,36.217,0,0,1,1453.57,180.8h455.366a18.168,18.168,0,1,0,0-36.336H1549.285V126.392h359.651a36.245,36.245,0,1,1,0,72.489H1453.57a18.168,18.168,0,1,0,0,36.336h227.683l243.106-13.068a83.99,83.99,0,0,0,57.314-27.065c2.819-9.984,6.551-16.054,10.614-16.054,8.889,0,16.087,28.807,16.087,64.33,0,35.539-7.2,64.346-16.087,64.346-1.841-.017-3.632-1.26-5.29-3.565a36.856,36.856,0,0,1-4.528-9.868,84.021,84.021,0,0,0-58.11-27.911l-243.106-13.068H1453.57a36.248,36.248,0,0,1-25.639-61.875" transform="translate(-1417.317 -45.939)" fill="#fff"/>
      <rect id="Rectangle_45" data-name="Rectangle 45" width="18.026" height="126.902" transform="translate(245.91 80.453)" fill="#fff"/>
      <rect id="Rectangle_46" data-name="Rectangle 46" width="18.026" height="72.489" transform="translate(119.406 134.866)" fill="#fff"/>
      <path id="Path_83" data-name="Path 83" d="M2118.814,144.793h12.561a12.561,12.561,0,0,0,0-25.123h-12.561Z" transform="translate(-1999.411 -43.495)" fill="#fe91e6"/>
      <path id="Path_84" data-name="Path 84" d="M971,.4a264.722,264.722,0,0,1-86.956,83.113c-37.957,22.372-80.924,34.883-124.076,43.786A843.783,843.783,0,0,1,598.32,144.644c-79.142.818-157.953-9.5-237.029-12.81s-160.048.725-233.983,28.966" transform="translate(441.198 -0.145)" fill="none" stroke="#fe91e6" stroke-width="1.457"/>
      <path id="Path_85" data-name="Path 85" d="M965.242,68.369a284.531,284.531,0,0,1-91.461,77.2C834.822,166.314,791.349,177.9,747.7,185.9a857.915,857.915,0,0,1-163.158,14.009c-71.881-.719-143.361-10.477-214.585-17.442q-11.658-1.14-23.305-2.16c-78.937-6.859-159.111-8.145-233.446,12.957" transform="translate(455.93 -24.849)" fill="none" stroke="#fe91e6" stroke-width="1.619"/>
      <path id="Path_86" data-name="Path 86" d="M959.482,136.34a310.786,310.786,0,0,1-95.966,71.3c-39.958,19.109-83.939,29.777-128.077,36.877a872.665,872.665,0,0,1-164.666,10.672C498.366,253.007,426.494,241.8,355.3,231.945q-11.651-1.614-23.278-3.158c-78.8-10.409-158.174-17.013-232.908-3.051" transform="translate(470.664 -49.554)" fill="none" stroke="#fe91e6" stroke-width="1.781"/>
      <path id="Path_87" data-name="Path 87" d="M953.723,204.312A345.29,345.29,0,0,1,853.251,269.7c-40.958,17.476-85.446,27.223-130.078,33.421A887.935,887.935,0,0,1,557,310.455c-72.933-3.634-145.2-16.28-216.361-29.035q-11.646-2.087-23.252-4.155c-78.658-13.957-157.237-25.882-232.371-19.059" transform="translate(485.396 -74.259)" fill="none" stroke="#fe91e6" stroke-width="1.943"/>
      <path id="Path_88" data-name="Path 88" d="M947.963,272.283a390.351,390.351,0,0,1-104.976,59.479c-41.959,15.844-86.953,24.67-132.079,29.966a903.786,903.786,0,0,1-167.682,4c-73.46-5.09-146.114-19.18-217.248-34.831q-11.641-2.561-23.226-5.153c-78.519-17.506-156.3-34.752-231.833-35.067" transform="translate(500.13 -98.964)" fill="none" stroke="#fe91e6" stroke-width="2.105"/>
      <path id="Path_89" data-name="Path 89" d="M942.2,330.484a449.287,449.287,0,0,1-109.481,53.57c-42.959,14.212-88.461,22.117-134.079,26.511a920.126,920.126,0,0,1-169.191.659c-73.986-6.547-147.032-22.081-218.137-40.627q-11.635-3.035-23.2-6.15c-78.38-21.055-155.363-43.621-231.3-51.075" transform="translate(514.863 -113.899)" fill="none" stroke="#fe91e6" stroke-width="2.267"/>
      <path id="Path_90" data-name="Path 90" d="M936.444,378.183a526.618,526.618,0,0,1-113.987,47.662c-43.959,12.58-89.967,19.565-136.08,23.056a936.957,936.957,0,0,1-170.7-2.679c-74.511-8-147.951-24.981-219.024-46.423q-11.631-3.509-23.174-7.148c-78.24-24.6-154.426-52.49-230.758-67.083" transform="translate(529.596 -118.332)" fill="none" stroke="#fe91e6" stroke-width="2.428"/>
      <path id="Path_91" data-name="Path 91" d="M930.684,425.883a629.018,629.018,0,0,1-118.491,41.753c-44.959,10.948-91.475,17.012-138.08,19.6A954.332,954.332,0,0,1,501.9,481.221C426.867,471.759,353.036,453.339,281.993,429q-11.624-3.982-23.147-8.145C180.745,392.7,105.357,359.5,28.625,337.766" transform="translate(544.33 -122.765)" fill="none" stroke="#fe91e6" stroke-width="2.59"/>
      <path id="Path_92" data-name="Path 92" d="M924.926,473.583a766.1,766.1,0,0,1-123,35.845,861.217,861.217,0,0,1-140.082,16.146,972.171,972.171,0,0,1-173.715-9.353,1028.993,1028.993,0,0,1-220.8-58.016q-11.618-4.455-23.121-9.142c-77.961-31.7-152.552-70.227-229.684-99.1" transform="translate(559.062 -127.198)" fill="none" stroke="#fe91e6" stroke-width="2.752"/>
      <path id="Path_93" data-name="Path 93" d="M919.166,521.282C702.221,588.353,461.7,576.127,252.671,487.406,166.238,450.72,85.589,401.713.43,362.16" transform="translate(573.795 -131.631)" fill="none" stroke="#fe91e6" stroke-width="2.914"/>
      <path id="Path_94" data-name="Path 94" d="M1417.323,273.419c0,35.53,7.2,64.333,16.083,64.333s16.083-28.8,16.083-64.333-7.2-64.333-16.083-64.333-16.083,28.8-16.083,64.333" transform="translate(-858.435 -75.995)" fill="#fe91e6"/>
    </g>
  </g>
</svg>
