<svg id="Group_21" data-name="Group 21" xmlns="http://www.w3.org/2000/svg" xmlns:xlink="http://www.w3.org/1999/xlink" width="483.182" height="289.373" viewBox="0 0 483.182 289.373">
  <defs>
    <clipPath id="clip-path">
      <rect id="Rectangle_36" data-name="Rectangle 36" width="483.182" height="289.373" fill="none"/>
    </clipPath>
  </defs>
  <g id="Group_20" data-name="Group 20" clip-path="url(#clip-path)">
    <path id="Path_27" data-name="Path 27" d="M282.743,104.267l-13.388,83.817A137,137,0,0,1,4.7,117.159L35.021,37.9C44.185,3.683,107.066-9.191,175.475,9.138c68.409,18.346,116.432,60.916,107.268,95.129" transform="translate(0 -0.273)" fill="#fe91e6"/>
    <path id="Path_28" data-name="Path 28" d="M573.657,302.007a86.333,86.333,0,0,1-105.763-61.045L465.176,225l-15.3-118.986c0-.018-.018-.037-.018-.055a18.022,18.022,0,0,1-.606-4.738c.129-17.392,24.59-37.317,58.179-46.316,33.755-9.053,64.993-3.948,73.625,11.2a16.988,16.988,0,0,1,1.745,4.132c0,.037.018.055.018.092L629.1,181.093l5.619,15.17a86.348,86.348,0,0,1-61.063,105.744" transform="translate(-154.5 -17.34)" fill="#bb85e2"/>
    <path id="Path_29" data-name="Path 29" d="M247.791,80.276c-2.737,10.213-21.513,14.056-41.94,8.582s-34.767-18.19-32.03-28.4,21.514-14.056,41.94-8.582S250.528,70.063,247.791,80.276Z" transform="translate(-59.663 -16.983)" fill="none" stroke="#f9dfd3" stroke-width="3.174"/>
    <path id="Path_30" data-name="Path 30" d="M258.335,85.074c-4.022,15.01-31.624,20.659-61.643,12.614s-51.1-26.735-47.078-41.744,31.62-20.662,61.643-12.618S262.357,70.061,258.335,85.074Z" transform="translate(-51.284 -13.641)" fill="none" stroke="#f9dfd3" stroke-width="2.857"/>
    <path id="Path_31" data-name="Path 31" d="M268.878,89.872c-5.308,19.806-41.734,27.261-81.345,16.646s-67.44-35.28-62.125-55.086,41.726-27.269,81.345-16.653S274.186,70.058,268.878,89.872Z" transform="translate(-42.904 -10.298)" fill="none" stroke="#f9dfd3" stroke-width="2.539"/>
    <path id="Path_32" data-name="Path 32" d="M279.422,94.67c-6.593,24.6-51.843,33.864-101.048,20.678S94.6,71.522,101.2,46.92s51.832-33.875,101.048-20.689S286.015,70.057,279.422,94.67Z" transform="translate(-34.525 -6.957)" fill="none" stroke="#f9dfd3" stroke-width="2.222"/>
    <path id="Path_33" data-name="Path 33" d="M289.966,99.469c-7.878,29.4-61.953,40.466-120.751,24.709S69.1,71.807,76.994,42.408C84.873,13,138.933,1.927,197.746,17.684,256.558,33.456,297.845,70.055,289.966,99.469Z" transform="translate(-26.146 -3.615)" fill="none" stroke="#f9dfd3" stroke-width="1.904"/>
    <path id="Path_34" data-name="Path 34" d="M300.511,104.267c-9.164,34.2-72.064,47.069-140.454,28.741C91.648,114.68,43.606,72.092,52.788,37.9,61.952,3.683,124.833-9.191,193.242,9.138,261.651,27.484,309.674,70.053,300.511,104.267Z" transform="translate(-17.767 -0.273)" fill="none" stroke="#f9dfd3" stroke-width="1.587"/>
    <path id="Path_35" data-name="Path 35" d="M564.411,92.432c2.027,7.563-8.593,16.979-23.719,21.032s-29.03,1.207-31.057-6.356,8.593-16.979,23.718-21.032S562.384,84.87,564.411,92.432Z" transform="translate(-175.18 -28.968)" fill="none" stroke="#f9dfd3" stroke-width="3.174"/>
    <path id="Path_36" data-name="Path 36" d="M524.714,75.694c21.336-5.72,40.921-2.08,45.246,7.971a10.844,10.844,0,0,1,.745,2.52c0,.018.006.03.006.047,1.743,10.925-13.6,24.1-35.167,29.881-22.309,5.977-42.818,1.785-45.828-9.361,0-.009-.008-.019-.009-.029a10.857,10.857,0,0,1-.364-2.865C489.391,93.284,504.282,81.169,524.714,75.694Z" transform="translate(-168.287 -25.099)" fill="none" stroke="#f9dfd3" stroke-width="2.91"/>
    <path id="Path_37" data-name="Path 37" d="M516.073,65.307c27.545-7.387,52.883-2.972,59.435,9.587a14.167,14.167,0,0,1,1.245,3.326c0,.028.013.043.013.07,3.333,14.636-17.223,32.656-46.371,40.467-29.491,7.9-56.6,2.361-60.6-12.366,0-.014-.014-.028-.014-.042a14.307,14.307,0,0,1-.485-3.8C469.354,88.563,489.063,72.544,516.073,65.307Z" transform="translate(-161.393 -21.225)" fill="none" stroke="#f9dfd3" stroke-width="2.645"/>
    <path id="Path_38" data-name="Path 38" d="M525.247,121.389c-36.674,9.825-70.392,2.939-75.369-15.371,0-.018-.018-.037-.018-.055a18.059,18.059,0,0,1-.606-4.738c.128-17.392,24.59-37.317,58.179-46.316,33.754-9.054,64.993-3.948,73.625,11.2a17.049,17.049,0,0,1,1.745,4.132c0,.037.018.055.018.092C587.742,88.682,561.977,111.546,525.247,121.389Z" transform="translate(-154.5 -17.34)" fill="none" stroke="#f9dfd3" stroke-width="2.381"/>
    <path id="Path_39" data-name="Path 39" d="M247.791,80.276c-2.737,10.213-21.513,14.056-41.94,8.582s-34.767-18.19-32.03-28.4,21.514-14.056,41.94-8.582,34.767,18.19,32.03,28.4" transform="translate(-59.663 -16.983)" fill="#f9dfd3"/>
    <path id="Path_40" data-name="Path 40" d="M564.411,92.432c2.027,7.563-8.593,16.979-23.719,21.032s-29.03,1.207-31.057-6.356,8.593-16.979,23.718-21.032,29.03-1.207,31.057,6.356" transform="translate(-175.18 -28.968)" fill="#f9dfd3"/>
  </g>
</svg>
