<svg id="Group_30" data-name="Group 30" xmlns="http://www.w3.org/2000/svg" xmlns:xlink="http://www.w3.org/1999/xlink" width="1482.54" height="212.931" viewBox="0 0 1482.54 212.931">
  <defs>
    <clipPath id="clip-path">
      <rect id="Rectangle_48" data-name="Rectangle 48" width="1482.54" height="212.931" fill="none"/>
    </clipPath>
  </defs>
  <g id="Group_29" data-name="Group 29" clip-path="url(#clip-path)">
    <path id="Path_95" data-name="Path 95" d="M1482.193,89.928c-124.1,11.635-239.726-40.147-365.656-42.539-85.048-1.616-165.605,19.425-249.926,25.545-98.5,7.149-198.083-6.3-292.315-23.157S387.164,12.438,288.79,4.807C193.32-2.6,96.166,2.385.144,7.378" transform="translate(-0.033 -0.239)" fill="none" stroke="#fff" stroke-width="2.096"/>
    <path id="Path_96" data-name="Path 96" d="M1482.193,106.051C1360.35,119.292,1243.37,71.277,1118.738,70.3c-83.393-.712-162.022,19.823-244.165,26.956-96.021,8.343-193.723-2.094-286.959-16.524C489.551,65.55,393.233,44.635,291.551,38.177,194.8,31.9,97.252,39.014.144,44.194" transform="translate(-0.033 -8.147)" fill="none" stroke="#fff" stroke-width="2.475"/>
    <path id="Path_97" data-name="Path 97" d="M1482.193,122.072c-119.591,14.846-237.92-29.4-361.256-28.974-81.737.191-158.439,20.221-238.4,28.364-93.541,9.539-189.394,2.239-281.6-9.889C499.008,98.167,399.3,76.727,294.312,71.443,196.289,66.3,98.338,75.54.144,80.908" transform="translate(-0.033 -15.952)" fill="none" stroke="#fff" stroke-width="2.854"/>
    <path id="Path_98" data-name="Path 98" d="M1482.193,138.008c-117.337,16.452-237.017-24.03-359.057-22.19-80.082,1.093-154.855,20.618-232.64,29.774-91.062,10.733-185.085,6.677-276.249-3.256-105.8-11.529-208.877-33.6-317.176-37.71-99.3-4.016-197.649,7.356-296.929,12.911" transform="translate(-0.033 -23.673)" fill="none" stroke="#fff" stroke-width="3.233"/>
    <path id="Path_99" data-name="Path 99" d="M1482.193,153.877c-115.084,18.056-236.114-18.658-356.857-15.406-78.427,1.995-151.272,21.016-226.878,31.183-88.581,11.927-180.788,11.214-270.893,3.376-109.7-9.542-216.125-32.354-327.731-35.291C199.259,134.853,100.51,148.357.144,154.1" transform="translate(-0.033 -31.327)" fill="none" stroke="#fff" stroke-width="3.612"/>
    <path id="Path_100" data-name="Path 100" d="M1482.193,166.723c-112.83,19.662-235.211-13.286-354.657-8.624-76.771,2.9-147.689,21.414-221.117,32.594-86.1,13.122-176.5,15.842-265.537,10.01-113.6-7.44-223.374-31.108-338.288-32.871-101.851-1.758-201,13.877-302.451,19.8" transform="translate(-0.033 -35.958)" fill="none" stroke="#fff" stroke-width="3.991"/>
    <path id="Path_101" data-name="Path 101" d="M1482.193,179.255c-110.577,21.267-234.307-7.914-352.457-1.842-75.116,3.8-144.106,21.812-215.355,34A1230.461,1230.461,0,0,1,654.2,228.06C536.7,222.843,423.578,198.2,305.355,197.61,202.228,196.981,102.681,214.747.144,220.86" transform="translate(-0.033 -40.274)" fill="none" stroke="#fff" stroke-width="4.37"/>
    <path id="Path_102" data-name="Path 102" d="M1482.193,190.694c-108.324,22.872-233.4-2.542-350.257,4.941-73.46,4.7-140.523,22.211-209.593,35.414-81.141,15.511-167.9,25.331-254.827,23.276-121.4-2.87-237.87-28.615-359.4-28.031-104.4.5-204.349,20.4-307.972,26.7" transform="translate(-0.033 -43.497)" fill="none" stroke="#fff" stroke-width="4.749"/>
  </g>
</svg>
