<svg xmlns="http://www.w3.org/2000/svg" xmlns:xlink="http://www.w3.org/1999/xlink" width="330.579" height="893.495" viewBox="0 0 330.579 893.495">
  <defs>
    <clipPath id="clip-path">
      <rect id="Rectangle_39" data-name="Rectangle 39" width="893.495" height="330.579" fill="none"/>
    </clipPath>
  </defs>
  <g id="Group_22" data-name="Group 22" transform="translate(0 893.495) rotate(-90)">
    <g id="Group_22-2" data-name="Group 22" clip-path="url(#clip-path)">
      <path id="Path_41" data-name="Path 41" d="M129.64,0C68.128,0,16.607,54.645,3.33,127.918a210.759,210.759,0,0,0,.023,74.766C16.63,275.958,68.128,330.579,129.64,330.579c49.2,0,92.016-34.96,113.952-86.457,10.819-25.359,36.154-41.437,63.695-41.437H893.5V127.918H307.334c-27.564,0-52.9-16.079-63.718-41.437C221.657,34.983,178.841,0,129.64,0" fill="#fe91e6"/>
      <path id="Path_42" data-name="Path 42" d="M1078.542,32.358C1015.28,32.358,964,97.814,964,178.547c0,80.753,51.275,146.188,114.537,146.188,43.436,0,81.217-30.826,100.64-76.284,9.622-22.519,32.1-36.831,56.592-36.831h.008a33.063,33.063,0,1,0,0-66.126c-24.485,0-46.963-14.306-56.587-36.82C1159.761,63.212,1121.979,32.358,1078.542,32.358Z" transform="translate(-944.088 -13.268)" fill="none" stroke="#f9dfd3" stroke-width="1.771"/>
      <path id="Path_43" data-name="Path 43" d="M1109.741,65.976a76.8,76.8,0,0,0-31.215,6.93c-19.967,8.984-36.919,25.862-48.694,47.619-11.286,20.944-17.792,46.372-17.563,73.7.2,31.947,9.668,61.158,25.263,83.354,18.106,25.8,44.5,42.095,73.826,42.071,37-.021,69.226-26.2,86-64.677,8.485-19.461,27.145-32.183,47.241-32.92h.006a26.922,26.922,0,0,0,10.305-2.448,28.587,28.587,0,0,0,16.414-26.587,29.1,29.1,0,0,0-28.045-28.734,53.437,53.437,0,0,1-47.659-32.379c-7.239-17.058-17.433-31.774-29.743-42.992-15.152-13.786-33.583-22.29-53.56-22.9Q1111.034,65.971,1109.741,65.976Z" transform="translate(-975.043 -27.052)" fill="none" stroke="#f9dfd3" stroke-width="2.067"/>
      <path id="Path_44" data-name="Path 44" d="M1140.931,99.592a61.763,61.763,0,0,0-26.242,6.414c-16.664,8.087-30.657,22.672-40.224,41.216-9.27,17.969-14.348,39.6-13.942,62.685.469,26.64,8.424,51.071,21.647,69.649,15.232,21.465,37.424,35.06,61.994,35.012,30.568-.041,57.248-21.575,71.362-53.068,7.352-16.4,22.188-27.535,37.891-29.01h.005a21.056,21.056,0,0,0,8.028-2.417c7.62-4.057,12.71-12.635,12.347-22.589-.47-12.923-10.587-23.59-23.027-24.405a45.656,45.656,0,0,1-38.731-27.936,104.715,104.715,0,0,0-24.509-36.067c-12.471-11.621-27.78-19-44.45-19.461Q1142.008,99.584,1140.931,99.592Z" transform="translate(-1005.99 -40.834)" fill="none" stroke="#f9dfd3" stroke-width="2.362"/>
      <path id="Path_45" data-name="Path 45" d="M1172.106,133.207a46.926,46.926,0,0,0-21.269,5.9c-13.363,7.189-24.372,19.495-31.753,34.813-7.231,15.007-10.935,32.83-10.321,51.668.7,21.333,7.18,40.983,18.031,55.945,12.357,17.127,30.346,28.025,50.161,27.954,24.135-.062,45.289-16.942,56.724-41.461,6.224-13.343,17.231-22.886,28.54-25.1h0a15.513,15.513,0,0,0,5.75-2.386c5.421-3.611,8.829-10.561,8.282-18.591-.7-10.252-8.48-18.854-18.009-20.077-12.79-1.677-24.455-10.559-29.8-23.5a86.644,86.644,0,0,0-19.275-29.142c-9.792-9.457-21.978-15.705-35.34-16.017C1173.256,133.2,1172.682,133.2,1172.106,133.207Z" transform="translate(-1036.922 -54.616)" fill="none" stroke="#f9dfd3" stroke-width="2.657"/>
      <path id="Path_46" data-name="Path 46" d="M1203.215,166.821a32.894,32.894,0,0,0-16.3,5.381c-10.078,6.263-18.079,16.323-23.283,28.41a90.205,90.205,0,0,0-6.7,40.65c.911,16.025,5.936,30.9,14.414,42.241,9.483,12.788,23.268,20.99,38.329,20.895,17.7-.083,33.365-12.3,42.087-29.853,5.107-10.282,12.272-18.238,19.189-21.188h0a10.88,10.88,0,0,0,3.472-2.356c3.212-3.174,4.954-8.484,4.215-14.593-.917-7.579-6.372-14.117-12.99-15.748h0c-8.891-2.235-16.953-9.309-20.875-19.053a68.517,68.517,0,0,0-14.04-22.217c-7.1-7.309-16.175-12.412-26.23-12.574C1204.078,166.808,1203.647,166.808,1203.215,166.821Z" transform="translate(-1067.787 -68.397)" fill="none" stroke="#f9dfd3" stroke-width="2.952"/>
      <path id="Path_47" data-name="Path 47" d="M1233.82,200.433c-4.263.228-8.1,2.307-11.321,4.864-6.778,5.371-11.772,13.16-14.812,22.007a69.58,69.58,0,0,0-3.078,29.633c1.1,10.716,4.711,20.792,10.8,28.536,6.629,8.434,16.19,13.955,26.5,13.835,11.269-.1,21.519-7.622,27.448-18.246,4.024-7.211,7.315-13.589,9.838-17.277h0a9.953,9.953,0,0,0,1.195-2.325c1.011-2.722,1.1-6.406.149-10.6-1.111-4.9-4.264-9.381-7.973-11.419-4.992-2.794-9.449-8.06-11.947-14.611a51.586,51.586,0,0,0-8.806-15.292c-4.415-5.142-10.373-9.119-17.121-9.13C1234.4,200.412,1234.109,200.417,1233.82,200.433Z" transform="translate(-1098.149 -82.174)" fill="none" stroke="#f9dfd3" stroke-width="3.247"/>
      <path id="Path_48" data-name="Path 48" d="M1255.7,234.038c-2.585.3-4.741,2.258-6.348,4.347a34.785,34.785,0,0,0-6.342,15.6,48.706,48.706,0,0,0,.543,18.615,32.531,32.531,0,0,0,7.182,14.832c3.735,4.112,9.111,6.92,14.664,6.777a17.486,17.486,0,0,0,12.81-6.638c3.652-4.749,1.974-10.7-.6-15.662-1.177-2.271-2.692-4.352-3.917-6.6-4.38-8.022-4.893-17.761-9.546-25.627-1.753-2.963-4.57-5.827-8.01-5.686C1255.991,234.009,1255.844,234.021,1255.7,234.038Z" transform="translate(-1119.784 -95.945)" fill="none" stroke="#f9dfd3" stroke-width="3.543"/>
      <rect id="Rectangle_38" data-name="Rectangle 38" width="559.658" height="74.763" transform="translate(251.356 127.911)" fill="#f9dfd3"/>
      <path id="Path_49" data-name="Path 49" d="M1488.492,216.819h-34.041a210.758,210.758,0,0,0,.023,74.766h34.018Z" transform="translate(-1451.121 -88.901)" fill="#f9dfd3"/>
    </g>
  </g>
</svg>
