<svg xmlns="http://www.w3.org/2000/svg" width="31.456" height="31.608" viewBox="0 0 31.456 31.608">
  <path id="whatsapp" d="M27.123,4.593a15.666,15.666,0,0,0-24.651,18.9L.25,31.608l8.3-2.178a15.646,15.646,0,0,0,7.485,1.906h.007A15.669,15.669,0,0,0,27.123,4.593Zm-11.079,24.1h-.005a13,13,0,0,1-6.626-1.815l-.475-.282L4.01,27.887l1.315-4.8-.31-.493a13.018,13.018,0,1,1,11.028,6.1Zm7.141-9.75c-.391-.2-2.315-1.142-2.674-1.273s-.62-.2-.88.2-1.011,1.273-1.239,1.534-.456.294-.848.1A10.689,10.689,0,0,1,14.4,17.554a11.8,11.8,0,0,1-2.177-2.711c-.228-.392,0-.583.172-.8a11.07,11.07,0,0,0,.978-1.339.72.72,0,0,0-.033-.686c-.1-.2-.88-2.122-1.206-2.906-.318-.763-.64-.66-.881-.672s-.489-.014-.75-.014a1.437,1.437,0,0,0-1.044.49,4.389,4.389,0,0,0-1.37,3.265,7.613,7.613,0,0,0,1.6,4.048c.2.261,2.76,4.214,6.685,5.909a22.4,22.4,0,0,0,2.231.825,5.365,5.365,0,0,0,2.465.155,4.032,4.032,0,0,0,2.642-1.861,3.27,3.27,0,0,0,.228-1.861c-.1-.163-.359-.261-.75-.457Zm0,0" transform="translate(-0.25)" fill="#fff" fill-rule="evenodd"/>
</svg>
